<svg width="29" height="30" viewBox="0 0 29 30" fill="none" xmlns="http://www.w3.org/2000/svg">
<path d="M2.8956 0.281277C1.56109 0.631866 0.452767 1.74584 0.113485 3.086C0.000391329 3.51576 0.000391328 3.75891 0.000391328 14.6385C0.000391328 27.0054 -0.0278821 26.0723 0.39622 26.9432C0.76943 27.7179 1.40276 28.3512 2.17745 28.7244C3.04827 29.1485 2.11525 29.1202 14.4764 29.1202C26.8376 29.1202 25.9045 29.1485 26.7754 28.7244C27.7876 28.2324 28.5623 27.2881 28.8393 26.2024C28.9524 25.7726 28.9524 25.5295 28.9524 14.6442C28.9524 3.75891 28.9524 3.51576 28.8393 3.086C28.4944 1.73453 27.3861 0.626213 26.0346 0.281277C25.6048 0.168182 25.3673 0.168182 14.4538 0.173838C3.67594 0.173838 3.29708 0.179491 2.8956 0.281277ZM15.9749 5.76633C17.8692 6.08865 19.5769 7.00471 20.9341 8.41273C22.0989 9.62849 22.8736 11.1157 23.2525 12.8517C23.4221 13.6264 23.4334 15.3623 23.2808 16.1427C22.6248 19.445 20.4082 21.9953 17.2755 23.0527C16.2972 23.3807 15.6017 23.4881 14.4764 23.4881C13.6791 23.4881 13.3624 23.4655 12.8479 23.3637C12.1523 23.2224 11.4172 22.9962 10.8404 22.7361L10.4785 22.5721L8.25059 23.1036C7.02352 23.3977 5.95478 23.6352 5.87562 23.6352C5.79645 23.6352 5.68336 23.5843 5.62681 23.5277C5.53634 23.4203 5.54765 23.3185 6.02264 21.0283L6.5146 18.6421L6.31669 18.2123C5.41193 16.2332 5.29884 13.8582 6.00002 11.7433C6.72382 9.57759 8.42589 7.60976 10.4559 6.59192C11.2476 6.19609 12.3616 5.83984 13.2154 5.71544C13.8657 5.61931 15.2681 5.64758 15.9749 5.76633Z" fill="white"/>
<path d="M13.4868 7.57583C12.2541 7.77375 11.0892 8.2657 10.1449 8.98951C9.68121 9.35141 8.90652 10.1883 8.59551 10.6689C7.7982 11.8791 7.44196 13.1005 7.44196 14.5877C7.44196 15.7864 7.6738 16.7647 8.22796 17.8674L8.48807 18.3876L8.19968 19.773C8.04135 20.5364 7.92826 21.1754 7.94522 21.1923C7.96219 21.2093 8.58986 21.0792 9.34759 20.9039L10.716 20.5873L11.2249 20.8361C12.2824 21.3676 13.2833 21.5995 14.482 21.5995C15.7091 21.5995 16.5799 21.3959 17.677 20.8587C19.5939 19.9087 20.9906 18.0596 21.409 15.9052C21.5448 15.2379 21.5448 13.943 21.4147 13.2758C21.1263 11.8169 20.5156 10.6689 19.4582 9.60587C18.4403 8.58237 17.3999 8.00559 16.0032 7.68327C15.4433 7.55321 14.024 7.49667 13.4868 7.57583ZM11.8696 10.4032C11.9827 10.4823 12.1467 10.782 12.4633 11.5058C12.9609 12.6368 12.9609 12.6142 12.5538 13.1514C12.1127 13.7338 12.1184 13.9374 12.6047 14.5424C13.1928 15.2832 14.4594 16.3632 15.1323 16.6969C15.613 16.9287 15.7996 16.8891 16.252 16.4537C16.7722 15.9561 16.7439 15.9561 17.9088 16.2897C18.9832 16.5951 19.1868 16.7025 19.2546 17.0305C19.3055 17.251 19.1246 17.6016 18.74 18.0314C18.3442 18.4611 18.0389 18.676 17.643 18.7947C17.2133 18.9248 16.4273 18.9135 15.8335 18.7721C13.7639 18.2745 10.9988 15.7978 10.2297 13.7508C10.0601 13.2927 10.0431 13.2079 10.0431 12.552C10.0375 11.9186 10.0488 11.8169 10.1675 11.5907C10.5294 10.9008 11.1627 10.2901 11.519 10.2901C11.6264 10.2901 11.7848 10.341 11.8696 10.4032Z" fill="white"/>
</svg>
