<svg width="30" height="30" viewBox="0 0 30 30" fill="none" xmlns="http://www.w3.org/2000/svg">
<path d="M9.02308 0.200203C5.91887 0.375849 4.17984 0.936781 2.96761 2.15497C1.72706 3.39015 1.19459 5.06728 1.00765 8.31955C0.934013 9.63973 0.934013 19.6459 1.00765 20.966C1.19459 24.2183 1.72706 25.8954 2.96761 27.1306C4.2025 28.3715 5.89055 28.9041 9.1647 29.091C10.4506 29.1647 20.4543 29.1647 21.7401 29.091C25.02 28.9041 26.6967 28.3715 27.9372 27.1306C29.1778 25.8898 29.7103 24.2126 29.8972 20.932C29.9708 19.6459 29.9708 9.63973 29.8972 8.35355C29.7103 5.07295 29.1778 3.39582 27.9372 2.15497C26.6967 0.914116 25.003 0.375847 21.7401 0.194536C20.5279 0.126545 10.2183 0.132212 9.02308 0.200203ZM8.9891 9.25444C9.38562 9.33376 9.51591 9.51508 9.92942 10.5916C10.6148 12.3821 11.6571 14.2802 12.4219 15.1414C12.7617 15.5267 13.1243 15.742 13.3452 15.691C13.6397 15.6287 13.6567 15.5097 13.6851 13.6682C13.7191 11.3169 13.6511 10.9202 13.0789 10.1723C12.807 9.80971 12.7787 9.60573 12.9826 9.40176C13.1752 9.21478 13.4018 9.19212 15.2258 9.21478C16.9252 9.23178 17.0159 9.24878 17.1631 9.50374C17.2198 9.60007 17.2424 10.2177 17.2538 12.0364C17.2651 13.5889 17.2878 14.5011 17.3274 14.5975C17.571 15.2094 18.5283 14.4615 19.6159 12.8013C20.0861 12.0874 20.6469 11.0619 21.0037 10.28C21.4909 9.20345 21.4286 9.23178 23.1676 9.23178C24.4422 9.23178 24.5158 9.23744 24.6688 9.35076C24.9633 9.57174 24.9067 9.96836 24.4252 10.9146C24.04 11.6851 23.4055 12.722 22.5049 14.0592C21.9157 14.9318 21.7968 15.1414 21.7968 15.317C21.7968 15.589 21.8591 15.674 22.6408 16.4842C24.9973 18.9206 25.7337 20.2351 24.9407 20.5694C24.6461 20.6884 22.2839 20.6827 21.9724 20.5581C21.8138 20.4957 21.4343 20.1388 20.6412 19.3172C19.1061 17.7251 18.432 17.2321 17.7919 17.2265C17.2934 17.2265 17.2991 17.2038 17.2651 18.7676C17.2311 20.2804 17.2141 20.3541 16.8233 20.5184C16.506 20.6544 15.4864 20.6827 14.8293 20.5694C12.7221 20.2011 10.8697 18.9206 9.31198 16.7505C8.47928 15.5947 7.57861 14.0762 7.02914 12.9033C6.47967 11.7191 5.99251 10.2687 5.99251 9.79271C5.99251 9.53774 6.19644 9.3111 6.47967 9.26011C6.78556 9.19778 8.68321 9.19778 8.9891 9.25444Z" fill="white"/>
</svg>
