<svg width="30" height="30" viewBox="0 0 30 30" fill="none" xmlns="http://www.w3.org/2000/svg">
<path d="M7.1927 0.0972404C4.12091 0.623257 1.55361 3.26477 1.04912 6.40943C0.920192 7.22705 0.920192 22.0584 1.04912 22.876C1.55361 26.0493 4.13212 28.6793 7.24315 29.1939C8.04473 29.3254 22.5853 29.3254 23.3869 29.1939C26.4979 28.6793 29.0764 26.0493 29.5809 22.876C29.7098 22.0584 29.7098 7.22705 29.5809 6.40943C29.0764 3.23619 26.4979 0.606104 23.3869 0.0915241C22.6245 -0.0342636 7.93262 -0.0285454 7.1927 0.0972404ZM19.9956 5.20874C22.2265 5.42601 23.9979 7.03836 24.4967 9.31396C24.5808 9.71419 24.592 10.223 24.592 14.6427C24.592 19.051 24.5808 19.577 24.4967 19.9715C24.0427 22.0355 22.5629 23.545 20.5393 24.0081C20.1469 24.0939 19.648 24.1053 15.315 24.1053C10.9932 24.1053 10.4775 24.0939 10.0907 24.0081C8.06715 23.545 6.58731 22.0355 6.13327 19.9715C6.04918 19.5713 6.03797 19.0624 6.03797 14.6427C6.03797 9.25678 6.03237 9.39972 6.39672 8.43917C6.77229 7.45003 7.57947 6.47233 8.46514 5.92916C9.06492 5.56323 9.88892 5.27736 10.5279 5.21446C11.2623 5.14585 19.2556 5.14013 19.9956 5.20874Z" fill="white"/>
<path d="M10.13 6.97547C8.98084 7.31852 8.07276 8.26192 7.77567 9.42258C7.64674 9.92573 7.65235 19.354 7.78127 19.8629C8.07836 21.0407 9.0425 22.0241 10.1916 22.3271C10.4943 22.4072 11.1389 22.4186 15.315 22.4186C20.6178 22.4186 20.3935 22.4358 21.1671 22.0355C21.7052 21.7611 22.2938 21.1607 22.5629 20.6119C22.9552 19.8228 22.9384 20.0515 22.9384 14.6427C22.9384 9.2339 22.9552 9.46261 22.5629 8.67358C22.2938 8.1247 21.7052 7.52435 21.1671 7.24991C20.3935 6.84968 20.6234 6.86683 15.2814 6.87255C10.8699 6.87255 10.4383 6.88399 10.13 6.97547ZM20.5505 9.03379C20.7915 9.1996 20.9205 9.43402 20.9205 9.72561C20.9205 10.0172 20.7915 10.2516 20.5505 10.4174C20.2086 10.6461 19.6985 10.5204 19.4574 10.1487C19.3285 9.9486 19.3173 9.55409 19.435 9.3311C19.62 8.95946 20.203 8.80509 20.5505 9.03379ZM16.2567 10.5032C16.7668 10.6118 17.5404 11.0064 17.9496 11.3608C18.9529 12.2299 19.463 13.3391 19.463 14.637C19.463 15.3631 19.3621 15.8205 19.0763 16.438C18.6727 17.3185 17.9944 18.0218 17.1368 18.4449C16.5034 18.7594 16.0045 18.8794 15.315 18.8794C14.6255 18.8794 14.1267 18.7594 13.4932 18.4449C12.6356 18.0218 12.0022 17.37 11.5874 16.5009C11.2679 15.8377 11.167 15.3917 11.167 14.6427C11.167 13.8937 11.2679 13.442 11.5874 12.7845C11.9854 11.9555 12.6076 11.2979 13.4035 10.8748C14.3116 10.3946 15.1973 10.2802 16.2567 10.5032Z" fill="white"/>
<path d="M14.4798 12.1785C13.8071 12.4357 13.3195 12.8874 13 13.5507C12.8262 13.9166 12.8206 13.9566 12.8206 14.6427C12.8206 15.3403 12.8262 15.3689 13.0112 15.7577C13.2634 16.2837 13.7062 16.7354 14.222 16.9926C14.6031 17.1813 14.6311 17.187 15.315 17.187C15.9989 17.187 16.0269 17.1813 16.4081 16.9926C16.9238 16.7354 17.3666 16.2837 17.6189 15.7577C17.8038 15.3689 17.8094 15.3403 17.8094 14.6427C17.8094 13.9452 17.8038 13.9166 17.6189 13.5278C17.3666 13.0018 16.9238 12.5501 16.4081 12.2985C16.0437 12.1156 15.9652 12.0984 15.3991 12.087C14.8946 12.0698 14.7264 12.087 14.4798 12.1785Z" fill="white"/>
</svg>
