<svg width="30" height="30" viewBox="0 0 30 30" fill="none" xmlns="http://www.w3.org/2000/svg">
<path d="M3.57321 0.281269C2.2387 0.631861 1.13038 1.74583 0.791098 3.086C0.678004 3.51575 0.678004 3.75891 0.678004 14.6385C0.678004 27.0054 0.64973 26.0723 1.07383 26.9432C1.44704 27.7178 2.08037 28.3512 2.85506 28.7244C3.72588 29.1485 2.79286 29.1202 15.154 29.1202C27.5152 29.1202 26.5822 29.1485 27.453 28.7244C28.4652 28.2324 29.2399 27.2881 29.5169 26.2024C29.63 25.7726 29.63 25.5295 29.63 14.6442C29.63 3.75891 29.63 3.51575 29.5169 3.086C29.172 1.73453 28.0637 0.626205 26.7122 0.281269C26.2825 0.168175 26.045 0.168175 15.1314 0.17383C4.35355 0.17383 3.97469 0.179485 3.57321 0.281269ZM23.7492 7.74547C24.0036 7.87553 24.145 8.10171 24.145 8.37879C24.145 8.70111 21.3176 21.1075 21.2102 21.2545C20.9557 21.6164 20.4807 21.7521 20.1302 21.5712C20.0284 21.5146 18.9879 20.8248 17.823 20.0331C15.9853 18.7891 15.6969 18.6081 15.6177 18.6703C15.5612 18.7099 15.0353 19.2075 14.4415 19.7673C13.3219 20.8304 13.1975 20.9153 12.8356 20.8361C12.485 20.7569 12.4002 20.576 11.5633 18.1105L10.7716 15.7864L8.62285 15.1984C6.24788 14.5537 6.16306 14.5141 6.16306 14.1353C6.16306 13.9883 6.20264 13.8808 6.29312 13.796C6.45145 13.6433 23.0649 7.63803 23.342 7.63237C23.4438 7.63237 23.6304 7.68327 23.7492 7.74547Z" fill="white"/>
<path d="M16.1266 12.7273C12.2362 14.9552 11.4728 15.4132 11.4445 15.532C11.388 15.7412 12.6603 19.5129 12.779 19.4959C12.8469 19.479 12.8921 19.2528 12.9882 18.4611C13.0561 17.9013 13.1296 17.3019 13.1579 17.1323L13.2031 16.8213L17.1162 13.6264C20.4751 10.8838 21.0292 10.4088 21.0349 10.2844C21.0349 10.1487 20.9501 10.0639 20.8143 10.0639C20.7974 10.0639 18.6825 11.2627 16.1266 12.7273Z" fill="white"/>
</svg>
