<svg width="78" height="90" viewBox="0 0 78 90" fill="none" xmlns="http://www.w3.org/2000/svg">
<path fill-rule="evenodd" clip-rule="evenodd" d="M17.2855 0.284981C13.081 0.895797 9.37697 2.47682 6.22222 5.00764C1.28846 8.96564 -0.861612 14.3223 0.315337 19.7247C1.23849 23.9634 4.36869 28.0486 8.48516 30.388L9.41489 30.9162L8.18972 31.6745C5.38389 33.411 2.76414 36.2166 1.45064 38.8914C-0.400256 42.6604 -0.448694 46.9602 1.31563 50.8718C2.56579 53.6437 5.48164 56.8001 8.35476 58.4921L9.41554 59.1168L8.11805 59.8992C5.64317 61.3916 3.50932 63.5637 1.9543 66.1733C-0.984128 71.1045 -0.538773 77.181 3.11152 81.9667C4.53614 83.8344 7.84869 86.5012 9.97509 87.4921C13.4755 89.1234 16.3223 89.8257 20.0484 89.9769C26.3476 90.2327 32.1664 88.3586 36.6092 84.6431C39.3379 82.361 40.899 79.9948 42.1005 76.3195C42.2733 75.7906 42.4028 72.5684 42.4911 66.6023L42.6231 57.6764L43.9381 58.4701C50.9814 62.7212 61.0104 63.0037 68.4344 59.1602C70.6279 58.0245 73.5356 55.6309 74.9037 53.8346C80.4546 46.5465 78.3721 37.1676 70.0186 31.8352L68.6025 30.9313L69.6398 30.308C76.8911 25.95 79.8035 18.2928 76.851 11.3488C74.4373 5.67138 68.0335 1.32059 60.5502 0.273728C57.8927 -0.0979665 19.8549 -0.0881203 17.2855 0.284981ZM35.5 16.8136V28.1654L26.7879 28.1104L18.0759 28.0555L16.4683 27.5845C14.2588 26.9369 12.6648 26.1367 11.0858 24.8822C4.33801 19.5213 6.04864 10.3591 14.444 6.89337C17.6281 5.5789 18.26 5.51314 27.9934 5.48431L35.5 5.46198V16.8136ZM58.7028 5.64519C63.3702 6.11481 67.3092 8.29874 69.4485 11.6034C70.5959 13.3755 71.055 14.8614 71.0607 16.8198C71.0664 18.7317 70.7585 19.8872 69.7893 21.5901C68.004 24.7273 64.6936 26.9508 60.539 27.8032C59.0451 28.1098 58.0715 28.1434 50.6973 28.1434H42.5135V16.8027V5.46198H49.697C53.648 5.46198 57.7007 5.54444 58.7028 5.64519ZM35.5 45.0226V56.2754H27.2175C17.8937 56.2754 17.6005 56.2464 14.4661 55.0153C11.0988 53.6924 8.33656 50.9138 7.32903 47.8358C6.84182 46.3473 6.84357 43.7194 7.33276 42.2094C8.32363 39.1513 11.0466 36.4153 14.4655 35.0421C17.5293 33.8117 17.7033 33.7944 27.1167 33.7814L35.5 33.7698V45.0226ZM61.6344 34.3347C66.1425 35.6935 69.511 38.6244 70.6844 42.2094C71.1701 43.6929 71.1699 46.3271 70.6844 47.8205C69.3619 51.8875 65.4592 54.9662 60.2863 56.0231C58.3181 56.4252 54.1302 56.3004 52.157 55.7808C48.0009 54.6863 44.6008 51.9514 43.1545 48.5391C42.4889 46.9688 42.3381 44.1551 42.8293 42.4732C43.4441 40.368 44.566 38.7972 46.672 37.0927C48.67 35.4757 50.2243 34.7253 52.8735 34.0986C54.9777 33.6008 59.6139 33.7257 61.6344 34.3347ZM35.5 68.2034C35.5 75.3423 35.3722 76.1161 33.8045 78.4783C32.8189 79.9635 30.4468 81.9515 28.6437 82.8034C22.8424 85.5445 15.7031 84.872 11.0598 81.1468C8.36944 78.9887 6.96148 76.2733 6.95272 73.2255C6.9468 71.2148 7.25934 70.1176 8.37514 68.2315C9.56568 66.2189 12.233 64.042 14.6814 63.0841C17.5032 61.9804 18.0147 61.9328 27.2263 61.9164L35.5 61.9018V68.2034Z" fill="#F2F2F2"/>
</svg>
