<svg width="78" height="90" viewBox="0 0 78 90" fill="none" xmlns="http://www.w3.org/2000/svg">
<path fill-rule="evenodd" clip-rule="evenodd" d="M0.0888792 0.834803C0.13758 1.29386 1.58795 19.7013 3.31181 41.7401C5.03552 63.7789 6.47387 81.9688 6.50812 82.1622C6.56473 82.4815 8.05468 82.8564 22.7852 86.2568L39 90L55.2148 86.2568C69.9453 82.8564 71.4353 82.4815 71.4919 82.1622C71.5261 81.9688 72.9645 63.7789 74.6882 41.7401C76.412 19.7013 77.8624 1.29386 77.9111 0.834803L78 0H39H0L0.0888792 0.834803ZM35.7664 44.4203C35.8031 72.4732 35.7926 73.8141 35.5348 73.8141C35.1333 73.8141 18.7654 70.0139 18.6643 69.8972C18.5904 69.812 17.5501 57.4218 17.5434 56.5469C17.5413 56.2636 17.7962 56.2393 20.7869 56.2393H24.0328L24.3253 59.974L24.618 63.7086L26.9389 64.2566L29.2598 64.8048V39.8682V14.9315L32.4939 14.979L35.7279 15.0265L35.7664 44.4203ZM63.611 16.3885C63.562 17.1859 63.4387 18.8864 63.3372 20.1671L63.1526 22.4957H55.9464H48.7402V31.8983V41.3008H55.2083C58.7657 41.3008 61.675 41.3206 61.6735 41.3447C61.4233 45.0634 59.3966 69.827 59.3369 69.896C59.2351 70.0134 42.8697 73.8141 42.4657 73.8141C42.2159 73.8141 42.196 73.5363 42.196 70.0623V66.3102L47.789 65.0095L53.382 63.7086L53.9424 56.7666C54.2507 52.9485 54.5074 49.5676 54.5131 49.2534L54.5234 48.6822H48.3597H42.196V31.9276C42.196 22.7124 42.2417 15.1201 42.2975 15.0558C42.3532 14.9913 47.1916 14.9386 53.0495 14.9386H63.7L63.611 16.3885Z" fill="#F2F2F2"/>
</svg>
